<svg width="297" height="311" viewBox="0 0 297 311" fill="none" xmlns="http://www.w3.org/2000/svg">
<g opacity="0.3">
<path d="M210.065 73.7042C234.156 92.7518 247.924 118.782 252.14 149.186C254.009 179.683 242.824 208.366 222.75 231.191C195.147 254.577 169.256 261.521 133.843 259.069C108.582 256.399 85.3058 241.65 68.9518 222.503C49.5648 195.636 43.0821 167.771 48.0786 134.771C54.817 105.426 74.127 82.5664 99.0868 66.4045C134.68 47.0796 176.95 51.2043 210.065 73.7042Z" fill="#C2F1D9"/>
<path d="M12.375 171.55C14.0085 171.55 15.642 171.55 17.325 171.55C20.5348 175.462 20.5348 175.462 24.1312 180.713C29.099 187.654 33.8422 193.277 40.5281 198.574C42.6721 200.317 44.8161 202.059 47.025 203.855C47.025 205.495 47.025 207.135 47.025 208.825C42.1245 209.645 37.224 210.465 32.175 211.31C55.6191 242.862 81.2021 268.292 121.275 275.919C166.995 280.286 203.489 271.607 239.302 241.906C260.15 222.414 270.524 198.183 279.675 171.55C282.125 172.78 282.125 172.78 284.625 174.035C283.689 211.878 266.11 244.61 239.263 270.435C206.974 297.214 170.327 306.926 128.7 303.254C95.5105 298.107 60.1115 281.4 39.6 253.555C19.8 223.077 19.8 223.077 19.8 211.31C9.999 216.23 9.999 216.23 0 221.25C3.55435 204.504 7.7717 188.035 12.375 171.55Z" fill="#6FD79B"/>
<path d="M225.225 29.9048C234.091 36.8074 242.103 44.253 249.975 52.2697C251.398 53.6728 252.821 55.0758 254.287 56.5214C265.935 68.9444 272.594 84.1307 279.675 99.4846C281.155 98.2033 282.636 96.922 284.161 95.6018C285.947 94.423 287.734 93.2442 289.575 92.0296C293.25 93.2597 293.25 93.2597 297 94.5146C296.314 96.7025 295.628 98.8903 294.921 101.144C294.025 104.031 293.128 106.917 292.204 109.891C291.314 112.745 290.424 115.599 289.507 118.539C287.502 125.437 285.884 132.179 284.625 139.244C276.332 136.469 274.356 134.166 268.847 127.596C267.344 125.818 265.841 124.04 264.293 122.209C262.835 120.45 261.377 118.691 259.875 116.88C258.595 115.352 257.316 113.824 255.998 112.249C253.15 108.836 250.322 105.405 247.5 101.97C252.4 101.15 257.301 100.329 262.35 99.4846C243.407 67.2643 217.22 49.2113 182.318 36.9424C147.283 28.9544 110.802 33.6554 79.5383 51.299C73.2932 55.4475 67.5909 59.8425 61.8749 64.6947C60.1553 66.117 58.4356 67.5392 56.6639 69.0046C36.5819 87.2566 23.0386 113.552 14.8499 139.244C14.0332 139.244 13.2164 139.244 12.3749 139.244C10.0719 104.56 25.5517 75.5641 47.1796 49.4741C93.9399 -0.291892 168.343 -5.67383 225.225 29.9048Z" fill="#6FD79B"/>
<path d="M133.65 99.4857C134.467 101.126 135.283 102.766 136.125 104.456C142.801 105.927 149.256 106.911 156.099 107.028C161.339 107.251 161.339 107.251 170.775 109.426C175.261 117.502 175.261 117.502 178.2 126.821C179.578 129.127 180.957 131.433 182.377 133.81C185.625 139.246 185.625 139.246 185.625 144.216C188.892 145.036 192.159 145.856 195.525 146.701C194.453 148.113 193.381 149.526 192.277 150.981C183.123 163.082 183.123 163.082 180.83 177.608C180.559 193.118 169.058 205.58 158.4 216.28C151.903 216.591 151.903 216.591 146.025 216.28C140.736 202.341 138.6 191.517 138.6 176.521C136.552 168.897 133.974 161.532 131.175 154.156C124.137 152.493 118.635 151.684 111.375 152.292C103.95 151.671 103.95 151.671 96.8344 146.39C91.575 139.246 91.575 139.246 89.7188 132.412C92.5698 120.007 100.087 110.971 108.9 101.971C117.496 99.0937 124.643 99.3151 133.65 99.4857Z" fill="#E6A153"/>
<path d="M136.125 54.7547C166.63 52.5451 192.502 59.8986 216.698 78.9155C230.686 91.9955 241.762 108.456 247.5 126.82C246.893 135.759 245.11 139.117 240.075 146.699C238.441 137.679 236.808 128.658 235.125 119.365C229.408 118.544 223.69 117.724 217.8 116.88C220.25 118.52 222.7 120.16 225.225 121.85C224.761 127.596 224.761 127.596 222.75 134.274C215.584 139.766 212.029 141.729 202.95 141.729C201.697 138.578 200.463 135.418 199.237 132.255C198.548 130.497 197.859 128.738 197.149 126.926C195.525 121.85 195.525 121.85 195.525 114.395C193.891 114.395 192.258 114.395 190.575 114.395C189.758 111.934 188.941 109.474 188.1 106.94C189.733 106.94 191.367 106.94 193.05 106.94C193.867 103.659 194.683 100.379 195.525 96.9996C191.441 96.9996 187.357 96.9996 183.15 96.9996C183.15 93.7194 183.15 90.4392 183.15 87.0596C188.05 86.2396 192.951 85.4195 198 84.5747C197.183 82.1145 196.366 79.6544 195.525 77.1197C193.075 77.9397 190.624 78.7598 188.1 79.6047C186.466 78.7846 184.833 77.9646 183.15 77.1197C182.333 80.3999 181.516 83.6801 180.675 87.0596C178.225 87.0596 175.774 87.0596 173.25 87.0596C172.433 89.5198 171.616 91.9799 170.775 94.5146C169.958 91.2344 169.141 87.9542 168.3 84.5747C165.033 83.7546 161.766 82.9346 158.4 82.0897C159.217 83.7298 160.033 85.3699 160.875 87.0596C154.341 86.2396 147.807 85.4195 141.075 84.5747C140.105 86.2147 139.135 87.8548 138.136 89.5446C133.65 94.5146 133.65 94.5146 126.998 95.1359C125.11 94.9309 123.221 94.7258 121.275 94.5146C121.275 90.4144 121.275 86.3141 121.275 82.0897C125.359 82.0897 129.442 82.0897 133.65 82.0897C132.833 77.9894 132.016 73.8892 131.175 69.6647C137.739 66.9927 144.252 64.4597 150.975 62.2097C150.975 60.5696 150.975 58.9295 150.975 57.2397C146.074 58.0598 141.174 58.8798 136.125 59.7247C136.125 58.0846 136.125 56.4445 136.125 54.7547Z" fill="#6FD79B"/>
<path d="M133.65 99.4857C134.467 101.126 135.283 102.766 136.125 104.456C138.575 106.096 141.025 107.736 143.55 109.426C141.916 109.426 140.283 109.426 138.6 109.426C138.6 127.467 138.6 145.508 138.6 164.096C136.966 164.916 135.333 165.736 133.65 166.581C132.425 160.43 132.425 160.43 131.175 154.156C124.137 152.493 118.635 151.684 111.375 152.292C103.95 151.671 103.95 151.671 96.8344 146.39C91.575 139.246 91.575 139.246 89.7188 132.412C92.5698 120.007 100.087 110.971 108.9 101.971C117.496 99.0937 124.643 99.3151 133.65 99.4857Z" fill="#E6A153"/>
<path d="M160.875 109.425C160.058 110.245 159.242 111.065 158.4 111.91C158.211 119.2 158.176 126.432 158.245 133.722C158.255 135.913 158.264 138.104 158.274 140.361C158.314 149.775 158.384 159.189 158.451 168.603C158.495 175.458 158.525 182.313 158.555 189.168C158.575 191.309 158.596 193.45 158.617 195.655C158.679 210.749 158.679 210.749 155.925 216.28C152.658 216.28 149.391 216.28 146.025 216.28C140.799 202.507 138.029 191.436 138.6 176.52C138.192 174.575 137.784 172.63 137.363 170.626C136.062 163.762 136.06 157.889 136.425 150.922C136.544 148.496 136.664 146.069 136.787 143.569C136.926 141.066 137.065 138.563 137.208 135.983C137.337 133.432 137.466 130.88 137.599 128.252C137.919 121.975 138.253 115.7 138.6 109.425C147.033 107.529 152.584 106.65 160.875 109.425Z" fill="#E6A153"/>
<path d="M116.325 104.455C116.296 107.447 116.268 110.439 116.238 113.521C116.215 117.437 116.192 121.352 116.17 125.267C116.15 127.24 116.129 129.213 116.108 131.246C115.755 141.789 115.755 141.789 118.8 151.67C108.858 152.831 105.027 152.469 96.8345 146.389C91.5751 139.245 91.5751 139.245 89.8735 132.256C93.0796 117.331 100.465 104.455 116.325 104.455Z" fill="#E6A153"/>
<path d="M155.925 109.425C160.825 109.425 165.726 109.425 170.775 109.425C170.775 111.885 170.775 114.345 170.775 116.88C169.141 116.88 167.508 116.88 165.825 116.88C166.118 127.715 166.425 138.549 166.746 149.383C166.854 153.068 166.957 156.754 167.056 160.439C167.199 165.738 167.356 171.037 167.517 176.335C167.608 179.523 167.698 182.712 167.792 185.997C167.967 193.967 167.967 193.967 170.775 201.37C167.299 206.995 162.863 211.361 158.4 216.279C154.148 207.741 155.629 197.929 155.683 188.537C155.687 186.282 155.69 184.028 155.694 181.705C155.708 174.489 155.739 167.273 155.77 160.057C155.783 155.171 155.794 150.285 155.804 145.399C155.831 133.407 155.874 121.416 155.925 109.425Z" fill="#E6A153"/>
<path d="M69.2998 218.765C86.0061 223.113 86.0061 223.113 91.5748 228.705C97.582 230.393 97.582 230.393 104.259 231.5C107.638 232.125 107.638 232.125 111.085 232.762C112.814 233.063 114.543 233.364 116.325 233.675C116.637 235.257 116.95 236.839 117.272 238.47C118.293 244.022 118.293 244.022 123.44 246.41C125.176 247.128 126.912 247.845 128.7 248.585C131.15 250.225 133.6 251.865 136.125 253.555C136.125 255.195 136.125 256.835 136.125 258.525C108.978 255.161 88.8632 242.523 69.2998 223.735C69.2998 222.095 69.2998 220.454 69.2998 218.765Z" fill="#6FD79B"/>
<path d="M131.175 104.455C135.259 105.275 139.343 106.095 143.55 106.94C141.1 108.17 141.1 108.17 138.6 109.425C138.6 127.466 138.6 145.507 138.6 164.095C136.967 164.915 135.333 165.735 133.65 166.58C128.664 152.345 128.428 140.683 129.628 125.733C129.769 123.678 129.909 121.623 130.054 119.506C130.4 114.487 130.784 109.471 131.175 104.455Z" fill="#E6A153"/>
<path d="M279.675 171.55C281.308 172.37 282.942 173.19 284.625 174.035C283.611 190.839 280.74 205.524 274.725 221.25C273.908 217.969 273.091 214.689 272.25 211.31C268.574 213.77 268.574 213.77 264.825 216.28C266.518 205.903 269.808 196.696 273.642 186.926C275.331 182.596 275.331 182.596 277.055 178.18C277.919 175.992 278.784 173.804 279.675 171.55Z" fill="#6FD79B"/>
<path d="M175.725 129.305C179.129 132.509 182.426 135.832 185.625 139.245C185.625 140.885 185.625 142.525 185.625 144.215C188.892 145.035 192.159 145.855 195.525 146.7C193.917 148.862 193.917 148.862 192.276 151.068C181.438 165.953 181.438 165.953 180.675 183.975C174.397 174.52 176.192 172.496 178.2 161.61C178.741 150.427 178.798 140.129 175.725 129.305Z" fill="#E6A153"/>
<path d="M96.5249 116.88C98.1584 117.7 99.7919 118.52 101.475 119.365C101.475 126.745 101.475 134.126 101.475 141.73C99.0246 141.73 96.5744 141.73 94.0499 141.73C91.5749 139.245 91.5749 139.245 91.1108 132.1C91.5749 124.335 91.5749 124.335 96.5249 116.88Z" fill="#E6A153"/>
<path d="M113.85 59.7256C115.484 60.5456 117.117 61.3657 118.8 62.2106C117.218 63.6969 115.635 65.1832 114.005 66.7146C108.397 71.9222 108.397 71.9222 106.425 79.6055C103.975 79.6055 101.525 79.6055 99.0001 79.6055C99.0001 77.9654 99.0001 76.3253 99.0001 74.6355C95.7331 75.4556 92.4661 76.2756 89.1001 77.1205C96.4814 68.8544 103.613 63.9711 113.85 59.7256Z" fill="#6FD79B"/>
<path d="M183.15 77.1201C187.234 77.1201 191.317 77.1201 195.525 77.1201C197.158 80.4003 198.792 83.6805 200.475 87.0601C197.718 87.3676 194.962 87.6751 192.122 87.992C183.073 88.6668 183.073 88.6668 178.2 94.5151C178.2 92.875 178.2 91.2349 178.2 89.5451C176.566 88.725 174.933 87.905 173.25 87.0601C175.7 87.0601 178.15 87.0601 180.675 87.0601C181.492 83.7799 182.308 80.4997 183.15 77.1201Z" fill="#6FD79B"/>
<path d="M69.2998 218.765C75.0171 220.405 80.7343 222.045 86.6248 223.735C86.9821 225.272 87.3395 226.81 87.7076 228.394C88.9303 233.756 88.9303 233.756 91.5748 238.645C83.0669 234.848 76.2557 229.943 69.2998 223.735C69.2998 222.095 69.2998 220.454 69.2998 218.765Z" fill="#6FD79B"/>
<path d="M71.7752 89.5449C73.4087 90.365 75.0422 91.185 76.7252 92.0299C73.3221 98.2424 73.3221 98.2424 69.3002 104.455C67.6667 104.455 66.0332 104.455 64.3502 104.455C63.6355 106.864 62.9209 109.273 62.1846 111.755C59.4002 119.365 59.4002 119.365 54.4502 121.85C56.0191 113.156 59.5283 107.335 64.5049 100.106C65.8608 98.1201 67.2167 96.134 68.6138 94.0878C69.657 92.5886 70.7003 91.0895 71.7752 89.5449Z" fill="#6FD79B"/>
<path d="M136.125 54.7554C140.559 54.6884 144.994 54.6401 149.428 54.6001C151.898 54.5712 154.367 54.5424 156.911 54.5127C163.35 54.7554 163.35 54.7554 168.3 57.2404C168.3 58.8805 168.3 60.5206 168.3 62.2103C162.583 62.2103 156.865 62.2103 150.975 62.2103C150.975 60.5703 150.975 58.9302 150.975 57.2404C146.074 58.0604 141.174 58.8805 136.125 59.7254C136.125 58.0853 136.125 56.4452 136.125 54.7554Z" fill="#6FD79B"/>
<path d="M279.675 171.55C281.309 172.37 282.942 173.19 284.625 174.035C283.808 182.235 282.992 190.436 282.15 198.885C279.7 197.245 277.25 195.605 274.725 193.915C276.359 186.534 277.992 179.154 279.675 171.55Z" fill="#6FD79B"/>
<path d="M193.05 179.005C194.683 179.005 196.317 179.005 198 179.005C197.183 184.745 196.366 190.486 195.525 196.4C193.074 197.22 190.624 198.04 188.1 198.885C187.603 189.651 187.724 187.026 193.05 179.005Z" fill="#E6A153"/>
<path d="M242.55 119.365C247.5 126.82 247.5 126.82 246.881 133.033C245.025 139.245 245.025 139.245 240.075 146.7C240.009 142.61 239.961 138.521 239.921 134.431C239.892 132.153 239.863 129.875 239.833 127.529C240.075 121.85 240.075 121.85 242.55 119.365Z" fill="#6FD79B"/>
<path d="M207.9 79.6055C212.85 82.7117 212.85 82.7117 217.8 87.0604C217.8 90.3406 217.8 93.6208 217.8 97.0004C215.35 96.1804 212.899 95.3603 210.375 94.5154C209.558 89.5951 208.741 84.6749 207.9 79.6055Z" fill="#6FD79B"/>
</g>
</svg>
