<svg width="20" height="20" viewBox="0 0 20 20" fill="none" xmlns="http://www.w3.org/2000/svg">
<path d="M1.66683 4.39134L2.7335 3.33301L16.6668 17.2663L15.6085 18.333L13.0418 15.7663C12.0835 16.083 11.0668 16.2497 10.0002 16.2497C5.8335 16.2497 2.27516 13.658 0.833496 9.99967C1.4085 8.53301 2.32516 7.24134 3.49183 6.21634L1.66683 4.39134ZM10.0002 7.49967C10.6632 7.49967 11.2991 7.76307 11.7679 8.23191C12.2368 8.70075 12.5002 9.33663 12.5002 9.99967C12.5006 10.2835 12.4527 10.5653 12.3585 10.833L9.16683 7.64134C9.43455 7.54716 9.71636 7.49925 10.0002 7.49967ZM10.0002 3.74967C14.1668 3.74967 17.7252 6.34134 19.1668 9.99967C18.4863 11.7271 17.3306 13.2266 15.8335 14.3247L14.6502 13.133C15.8026 12.3359 16.7321 11.2573 17.3502 9.99967C16.6765 8.62456 15.6306 7.46603 14.3313 6.6558C13.032 5.84557 11.5314 5.41614 10.0002 5.41634C9.09183 5.41634 8.20016 5.56634 7.36683 5.83301L6.0835 4.55801C7.2835 4.04134 8.6085 3.74967 10.0002 3.74967ZM2.65016 9.99967C3.32378 11.3748 4.36971 12.5333 5.66902 13.3435C6.96834 14.1538 8.46892 14.5832 10.0002 14.583C10.5752 14.583 11.1418 14.5247 11.6668 14.408L9.76683 12.4997C9.18696 12.4375 8.64585 12.1787 8.23347 11.7664C7.8211 11.354 7.56232 10.8129 7.50016 10.233L4.66683 7.39134C3.84183 8.09967 3.15016 8.98301 2.65016 9.99967Z" fill="#667185"/>
</svg>
